<?xml version="1.0" encoding="UTF-8"?>
<svg version="1.1" xmlns="http://www.w3.org/2000/svg" width="1920" height="1300">
<path d="M0 0 C633.6 0 1267.2 0 1920 0 C1920 429 1920 858 1920 1300 C1286.4 1300 652.8 1300 0 1300 C0 871 0 442 0 0 Z " fill="#06A1C3" transform="translate(0,0)"/>
<path d="M0 0 C39.94544205 0 79.78414517 0.11366359 119.70339966 1.11062622 C125.26311896 1.24871803 130.82290767 1.38340444 136.38278198 1.5151062 C177.76477043 2.49732747 219.12987229 3.76023738 260.49116707 5.40306854 C277.05357571 6.06021067 293.61940084 6.57333055 310.1875 7.0625 C328.31596399 7.59909858 346.44053719 8.18381258 364.56381226 8.87426758 C386.56028437 9.70951762 408.5590555 10.39936193 430.56302643 10.99902344 C432.77282391 11.0596947 434.98257718 11.12176166 437.19232178 11.18432617 C447.50080721 11.47456021 457.80995915 11.7182221 468.12018204 11.93788147 C471.08280583 12.00178615 474.04535031 12.06879676 477.00790405 12.13586426 C533.43668087 13.38523591 589.88313997 13.15391855 646.32229298 13.12946179 C656.87900961 13.12497577 667.4357152 13.12578213 677.99243164 13.13037109 C690.46400663 13.13579044 702.93557516 13.13779392 715.40715116 13.13475883 C721.93247304 13.13321197 728.45778892 13.13290195 734.98311043 13.13629532 C779.02457719 13.15609051 823.00942293 12.40916165 867.02368164 10.875 C875.58772813 10.57918999 884.15227181 10.30858005 892.71794891 10.06512833 C894.25325131 10.02131175 895.78853465 9.97682303 897.32379913 9.93169785 C939.98756863 8.68263214 982.66743079 8.81221488 1025.34514004 8.81488883 C1032.41028585 8.81458715 1039.47539291 8.80647061 1046.54052734 8.79418945 C1106.9079034 8.69164362 1167.21729318 9.3371855 1227.54484844 11.64927292 C1238.79469305 12.07766725 1250.04671375 12.39023001 1261.30078125 12.68359375 C1262.43058096 12.71327806 1263.56038067 12.74296238 1264.72441673 12.77354622 C1270.8062244 12.9331917 1276.88807613 13.09101619 1282.9699707 13.24731445 C1287.70215577 13.36919805 1292.43424388 13.49403358 1297.16625977 13.62231445 C1315.53499855 14.11921134 1333.90484566 14.54583105 1352.27599907 14.94107294 C1355.11264954 15.0024369 1357.94927778 15.06476157 1360.78590393 15.12723923 C1444.333608 16.96111534 1527.84808646 17.28985367 1611.41207372 17.20319679 C1624.13604753 17.19007926 1636.86000401 17.18473371 1649.58398438 17.18530273 C1752.79618741 17.20039437 1752.79618741 17.20039437 1856 16 C1877.12 15.67 1898.24 15.34 1920 15 C1920 83.31 1920 151.62 1920 222 C1286.4 222 652.8 222 0 222 C0 148.74 0 75.48 0 0 Z " fill="#F9DAB1" transform="translate(0,1078)"/>
<path d="M0 0 C42.53159673 0 42.53159673 0 59.38671875 0.515625 C61.37618252 0.57237854 63.36565968 0.62866438 65.35514832 0.68453979 C69.59108952 0.80451782 73.826917 0.92776525 78.06268311 1.05377197 C84.91223543 1.25748234 91.76201108 1.45296217 98.61181641 1.64794922 C121.40122911 2.29903917 144.18991219 2.9750559 166.97858143 3.65157318 C174.55616811 3.87649235 182.13376961 4.10088933 189.71141052 4.32397461 C190.8424375 4.35727694 190.8424375 4.35727694 191.99631351 4.39125204 C195.03866162 4.4808192 198.08101018 4.57037098 201.12336195 4.65981388 C209.25065993 4.8987781 217.37790183 5.13934022 225.50497437 5.38586426 C233.85475559 5.63906359 242.20463058 5.8888618 250.5546875 6.1328125 C251.56779302 6.1624131 251.56779302 6.1624131 252.60136533 6.19261169 C276.17600539 6.87859281 299.75041071 7.34227854 323.33297729 7.65213013 C325.7026218 7.68419215 328.07226097 7.71665055 330.44189453 7.74951172 C331.61974675 7.76583523 332.79759897 7.78215874 334.01114368 7.7989769 C341.65856411 7.91671897 349.29989114 8.12686117 356.94383717 8.38125992 C377.61421124 9.06777352 398.2693476 9.1483504 418.94984126 9.1343255 C424.03285054 9.13172073 429.11585841 9.1341627 434.1988678 9.13571167 C442.76710336 9.13751721 451.33533023 9.13517714 459.90356445 9.13037109 C468.51945568 9.12559173 477.13532953 9.12550367 485.7512207 9.13037109 C539.50882234 9.15993118 593.25005472 8.94572897 647 8 C648.05723644 7.98162079 649.11447289 7.96324158 650.2037468 7.94430542 C661.29077192 7.75022133 672.37641325 7.51744449 683.46174622 7.24363327 C685.8679844 7.18460572 688.27425703 7.12718644 690.68054199 7.07009888 C729.06633564 6.15727855 767.44804301 5.07411349 805.82973671 4.00489092 C808.2409964 3.9377507 810.65225895 3.87071442 813.06352234 3.80370712 C822.32870705 3.54615358 831.59383843 3.28678722 840.85890198 3.02490997 C843.70124334 2.94459628 846.54359926 2.86483485 849.38597107 2.78560638 C867.62355222 2.27758279 867.62355222 2.27758279 885.85518551 1.59482861 C900.55977562 0.97689476 915.25083334 0.79020502 929.96755981 0.73451686 C932.0922335 0.72637368 934.21689989 0.71708009 936.34156799 0.70759773 C947.2901902 0.66011212 958.23878774 0.63784606 969.1875 0.625 C970.00118687 0.62391251 970.81487374 0.62282502 971.65321779 0.62170458 C1053.90859892 0.51435104 1136.02574997 3.02258669 1350.09375 14.03515625 C1420.75793723 18.67024745 1491.53002901 22.0255089 1562.3125 24.1875 C1563.51590027 24.22433899 1564.71930054 24.26117798 1565.95916748 24.2991333 C1573.87682654 24.5371209 1581.79511736 24.74351571 1589.71383858 24.94218159 C1592.06253052 25.00158144 1594.4111824 25.06242074 1596.75983429 25.12338257 C1626.05306885 25.87694432 1655.32761577 26.151848 1684.6298871 26.1343255 C1690.39464639 26.1317193 1696.15940443 26.13416154 1701.92416382 26.13571167 C1711.58648979 26.13750977 1721.24880802 26.13518987 1730.91113281 26.13037109 C1741.94591474 26.12493001 1752.98067817 26.12669973 1764.01545966 26.1321975 C1773.63992677 26.13679331 1783.26438844 26.13734822 1792.88885629 26.13475883 C1798.57149264 26.13323141 1804.25412041 26.13290121 1809.93675613 26.13629532 C1833.92222233 26.14872769 1857.88817856 26.01471848 1881.86561012 25.34897041 C1894.59381371 25.00634005 1907.25192008 25 1920 25 C1920 69.22 1920 113.44 1920 159 C1912.93653078 159.64213357 1906.06622714 160.17125752 1899.00390625 160.28125 C1898.10602544 160.29731702 1897.20814463 160.31338404 1896.28305531 160.32993793 C1887.65986107 160.48273256 1879.03650531 160.62437525 1870.41307867 160.7633661 C1863.21948393 160.87940585 1856.0259876 160.99782759 1848.83268738 161.13113403 C1781.57119141 162.3688735 1714.29545256 162.18821026 1647.02531572 162.18518777 C1634.31406678 162.18480499 1621.60284326 162.19262883 1608.89160156 162.20581055 C1525.18641633 162.29093496 1441.53441119 161.90575273 1357.84579659 160.06248236 C1355.11237614 160.00246733 1352.3789392 159.94328762 1349.64549255 159.88447952 C1331.01926739 159.4835361 1312.3947927 159.03514685 1293.77105713 158.53027344 C1288.93399095 158.40052243 1284.09678825 158.27627247 1279.25957966 158.15196133 C1273.2732603 157.99786207 1267.28701769 157.8408759 1261.30078125 157.68359375 C1260.24489618 157.65606962 1259.18901112 157.62854549 1258.10112953 157.6001873 C1246.81688671 157.30397754 1235.53670225 156.95537463 1224.25683594 156.52270508 C1164.6507715 154.25709321 1105.0504603 153.66990604 1045.40655458 153.74286222 C1038.53004966 153.75040087 1031.65360243 153.74767426 1024.77709961 153.73925781 C966.89343116 153.67024974 909.05526838 154.3164065 851.20482635 156.37861061 C811.2057062 157.79011675 771.21655781 158.15513781 731.19522786 158.1343255 C725.25607826 158.13199002 719.31692996 158.13380734 713.37778037 158.1352527 C700.87813778 158.13806793 688.37850266 158.13488588 675.8788613 158.12945233 C665.32719604 158.12500593 654.775542 158.12580148 644.22387695 158.13037109 C521.10053084 158.18207434 521.10053084 158.18207434 471 157 C469.85054272 156.97337784 468.70108543 156.94675568 467.51679611 156.91932678 C451.66519597 156.55061435 435.81578536 156.11977571 419.9666748 155.65722656 C415.56119244 155.529964 411.15557272 155.40786266 406.74994755 155.28566074 C382.67255898 154.61592887 358.60323125 153.82371828 334.53535461 152.87123489 C318.67507298 152.24381341 302.81423149 151.67754794 286.94921875 151.18359375 C285.93950956 151.15212816 284.92980038 151.12066257 283.88949394 151.08824348 C277.83695466 150.90020411 271.78433948 150.71470999 265.73168945 150.53027344 C257.52594689 150.28019868 249.32026547 150.02821121 241.11466408 149.77354622 C238.32856941 149.68758471 235.54242568 149.60339569 232.75627136 149.51939392 C223.81777962 149.2453577 214.88542953 148.91291228 205.95214844 148.50219727 C192.49517147 147.89267946 179.03315358 147.58647509 165.56640625 147.28125 C163.53245953 147.23421861 161.49852037 147.18686973 159.46458191 147.13948298 C153.05594278 146.99017648 146.64725425 146.84315439 140.23852539 146.69775391 C133.8289514 146.55230612 127.41946014 146.40358833 121.01000553 146.25297785 C115.3602222 146.12032129 109.71039342 145.98972312 104.06053013 145.86051702 C100.75339362 145.78488572 97.44627872 145.70857005 94.13919258 145.63075256 C62.76214007 144.89549543 31.3829345 144.49035835 0 144 C0 96.48 0 48.96 0 0 Z " fill="#18C0DA" transform="translate(0,934)"/>
<path d="M0 0 C1.3077816 -0.00029457 2.6155632 -0.00058914 3.96297455 -0.00089264 C50.45967439 -0.00257896 96.81527488 0.84370615 143.25 3.25 C144.2016655 3.29900955 145.15333099 3.3480191 146.13383484 3.39851379 C190.12406781 5.66432164 234.09662983 8.23869773 278.06888962 10.82619286 C289.71247533 11.51114027 301.35617063 12.1942071 313 12.875 C314.27597801 12.94960827 315.55195602 13.02421654 316.86660004 13.10108566 C375.88235303 16.54797542 434.91296505 19.52743002 494 21.4375 C495.70968964 21.49316635 495.70968964 21.49316635 497.45391846 21.54995728 C506.05165843 21.82380746 514.65033494 22.04736274 523.25 22.25 C524.11352585 22.27056835 524.9770517 22.2911367 525.866745 22.31232834 C559.11453921 23.09861276 592.35156315 23.43817999 625.60839844 23.43530273 C630.47171856 23.43522273 635.33494192 23.44199153 640.19824219 23.45581055 C719.71629984 23.67654295 799.16622944 20.84079114 878.61721802 17.86717987 C966.22784825 14.59015569 1053.69925553 11.88373591 1141.37879789 11.99285984 C1148.12730812 12.00039916 1154.8757595 11.9976766 1161.62426758 11.98925781 C1215.15129025 11.92432949 1268.61770004 12.58540558 1322.12141752 14.18635368 C1324.15780805 14.24724339 1326.19421622 14.30754226 1328.23062515 14.36781311 C1343.26645942 14.81444857 1358.29955515 15.31956694 1373.33150101 15.88173676 C1376.64151797 16.00528211 1379.95159773 16.12703817 1383.26168823 16.24859619 C1459.73427933 19.06777184 1536.16400872 22.92481411 1612.58340263 26.9084425 C1667.04811344 29.74731836 1721.42859765 32.16262427 1775.96948242 32.90942383 C1793.07976623 33.15161248 1810.13755008 33.69798549 1827.25 34.25 C1827.25 79.46 1827.25 124.67 1827.25 171.25 C1812.77561517 171.87932108 1798.32356814 172.48114061 1783.8425293 172.80200195 C1782.91748136 172.82291669 1781.99243342 172.84383142 1781.03935373 172.86537993 C1759.04085613 173.35250254 1737.04443649 173.41454369 1715.04136872 173.41725707 C1711.69767429 173.41798438 1708.35398361 173.42014911 1705.01029015 173.42275429 C1693.18092983 173.4319313 1681.35158055 173.43610011 1669.5222168 173.43530273 C1659.94863186 173.43477365 1650.37508813 173.44175569 1640.80151367 173.45581055 C1582.59741169 173.53935123 1524.4567228 173.17328111 1466.27972937 171.31468678 C1464.23417942 171.2494958 1462.18860636 171.1850824 1460.14302444 171.12090302 C1443.96624938 170.61303278 1427.79332374 170.04934325 1411.62207031 169.38745117 C1408.25074328 169.2500303 1404.87929199 169.11604462 1401.5078125 168.98242188 C1356.79244231 167.19112141 1312.1259337 164.50296218 1267.45507812 161.85083008 C1262.49870494 161.55668484 1257.5423252 161.26265046 1252.5859375 160.96875 C1251.36932686 160.89657446 1250.15271622 160.82439892 1248.89923859 160.75003624 C1225.17973164 159.34487929 1201.45534519 158.03784098 1177.72851562 156.7630167 C1169.83963762 156.33831376 1161.95149757 155.90099971 1154.06347656 155.46069336 C1125.09431207 153.84651839 1096.12165883 152.6743464 1067.125 151.6875 C1066.26084473 151.65806305 1065.39668945 151.6286261 1064.50634766 151.59829712 C1056.70156111 151.3331121 1048.89668676 151.07113345 1041.09127808 150.82485962 C1039.21433442 150.76558633 1037.33739148 150.70629019 1035.46044922 150.64697266 C1034.50151701 150.61669794 1033.5425848 150.58642323 1032.55459404 150.55523109 C1025.91358748 150.34276398 1019.27368033 150.10679597 1012.63380432 149.86166286 C972.26874129 148.37981632 931.95507319 147.93210149 891.56469619 147.99286181 C885.97653724 148.0003981 880.38844933 147.99767541 874.80029297 147.98925781 C835.07126162 147.93110767 795.41592501 148.4419292 755.71089935 149.82611179 C740.44381762 150.35685416 725.17407761 150.78937746 709.90393209 151.22124052 C706.15689205 151.32742335 702.40988301 151.43468799 698.66287231 151.54190063 C692.66393573 151.7134639 686.66498171 151.88440299 680.66601562 152.05493164 C674.6064102 152.22722482 668.54684335 152.40081461 662.48730469 152.57543945 C591.58283645 154.61784044 591.58283645 154.61784044 557.70506668 155.19136429 C555.29970873 155.23218546 552.89436227 155.27368716 550.48902512 155.31571579 C496.92994749 156.24962588 443.37798602 156.40882782 389.81163085 156.37856936 C381.17356207 156.37420258 372.53550777 156.37735229 363.8974399 156.3821975 C355.37232284 156.3867795 346.84721192 156.38735674 338.32209402 156.38475883 C333.31313934 156.38323283 328.30419438 156.38289839 323.2952404 156.38629532 C302.84136054 156.39830915 282.41979827 156.2383158 261.97662765 155.55799407 C254.29624921 155.30268851 246.61953345 155.13042884 238.93554688 155.03686523 C237.86369172 155.02358468 236.79183657 155.01030413 235.68750095 154.99662113 C233.46026441 154.96942052 231.23302503 154.94245125 229.00578308 154.9156971 C200.02670633 154.55025979 171.06196275 153.76501569 142.09375 152.91015625 C141.02289532 152.8785791 139.95204063 152.84700194 138.84873581 152.81446791 C125.52941217 152.4211921 112.21028946 152.02133704 98.89124393 151.61876333 C78.86017401 151.01334008 58.82886427 150.41590145 38.79751205 149.81990004 C35.5459627 149.72309428 32.29441951 149.62608323 29.0428772 149.52904129 C-11.55223391 148.31848898 -52.14922787 147.25916905 -92.75 146.25 C-92.75 98.73 -92.75 51.21 -92.75 2.25 C-62.22981635 -1.56502296 -30.69403909 0.00317526 0 0 Z " fill="#03AACD" transform="translate(92.75,787.75)"/>
<path d="M0 0 C16.07319932 0 16.07319932 0 22.8671875 0.50317383 C24.03976766 0.58381687 24.03976766 0.58381687 25.2360363 0.66608906 C26.91135941 0.78188784 28.58653463 0.89984428 30.26156235 1.01984024 C32.95835666 1.21300178 35.65550826 1.40027035 38.35281372 1.58615112 C42.22283093 1.85318524 46.09269402 2.12231231 49.96246338 2.39291382 C87.81818631 5.03244369 125.66777565 7.49354705 163.59185791 8.90991211 C166.14704584 9.00550094 168.70218354 9.1023755 171.25732422 9.19921875 C224.7538608 11.21453692 278.21451022 12.28187875 331.75 12.25 C332.96270821 12.2496664 334.17541641 12.24933281 335.42487335 12.24898911 C391.02375921 12.22843462 446.49077314 10.47538962 502.04170132 8.36876404 C511.84933176 7.99686969 521.65707888 7.6280955 531.46484375 7.25976562 C532.33766448 7.22697856 533.2104852 7.19419149 534.10975504 7.16041088 C551.89583262 6.49236592 569.68203148 5.8276106 587.46842957 5.16815186 C590.3972034 5.05954522 593.32596544 4.95062989 596.25471497 4.84136963 C631.45893727 3.52851652 666.6555968 2.51771968 701.879776 1.93494034 C705.5876341 1.87354904 709.29546427 1.81061802 713.0032959 1.74765015 C823.59496347 -0.10896351 934.10696077 0.56815706 1044.57756042 6.35679626 C1055.08583565 6.90639312 1065.59540584 7.42724768 1076.10546875 7.94140625 C1107.68575931 9.4892822 1139.25997721 11.09181378 1170.82450867 12.9355545 C1245.80420524 17.31081199 1320.85700579 20.35502705 1395.9453125 22.078125 C1396.88264937 22.09969359 1397.81998624 22.12126217 1398.78572726 22.14348435 C1449.60266135 23.30064625 1500.41921743 23.27098748 1551.246687 23.20059639 C1560.06167918 23.18895059 1568.87665091 23.18485406 1577.69165039 23.18530273 C1627.07406595 23.18760035 1676.44902397 23.12379304 1725.82699394 22.42214203 C1762.94077826 21.89582026 1800.05050856 21.87966407 1837.16743106 21.92797321 C1846.24753678 21.93956822 1855.32764374 21.94474951 1864.40775514 21.94967639 C1882.93851372 21.95986046 1901.46925138 21.97803212 1920 22 C1920 41.14 1920 60.28 1920 80 C1912.93653078 80.64213357 1906.06622714 81.17125752 1899.00390625 81.28125 C1898.10602544 81.29731702 1897.20814463 81.31338404 1896.28305531 81.32993793 C1887.65986107 81.48273256 1879.03650531 81.62437525 1870.41307867 81.7633661 C1863.21948393 81.87940585 1856.0259876 81.99782759 1848.83268738 82.13113403 C1781.57119141 83.3688735 1714.29545256 83.18821026 1647.02531572 83.18518777 C1634.31406678 83.18480499 1621.60284326 83.19262883 1608.89160156 83.20581055 C1525.18641633 83.29093496 1441.53441119 82.90575273 1357.84579659 81.06248236 C1355.11237614 81.00246733 1352.3789392 80.94328762 1349.64549255 80.88447952 C1331.01926739 80.4835361 1312.3947927 80.03514685 1293.77105713 79.53027344 C1288.93399095 79.40052243 1284.09678825 79.27627247 1279.25957966 79.15196133 C1273.2732603 78.99786207 1267.28701769 78.8408759 1261.30078125 78.68359375 C1260.24489618 78.65606962 1259.18901112 78.62854549 1258.10112953 78.6001873 C1246.81688671 78.30397754 1235.53670225 77.95537463 1224.25683594 77.52270508 C1164.6507715 75.25709321 1105.0504603 74.66990604 1045.40655458 74.74286222 C1038.53004966 74.75040087 1031.65360243 74.74767426 1024.77709961 74.73925781 C966.89343116 74.67024974 909.05526838 75.3164065 851.20482635 77.37861061 C811.2057062 78.79011675 771.21655781 79.15513781 731.19522786 79.1343255 C725.25607826 79.13199002 719.31692996 79.13380734 713.37778037 79.1352527 C700.87813778 79.13806793 688.37850266 79.13488588 675.8788613 79.12945233 C665.32719604 79.12500593 654.775542 79.12580148 644.22387695 79.13037109 C521.10053084 79.18207434 521.10053084 79.18207434 471 78 C469.85054272 77.97337784 468.70108543 77.94675568 467.51679611 77.91932678 C451.66519597 77.55061435 435.81578536 77.11977571 419.9666748 76.65722656 C415.56119244 76.529964 411.15557272 76.40786266 406.74994755 76.28566074 C382.67255898 75.61592887 358.60323125 74.82371828 334.53535461 73.87123489 C318.67507298 73.24381341 302.81423149 72.67754794 286.94921875 72.18359375 C285.93950956 72.15212816 284.92980038 72.12066257 283.88949394 72.08824348 C277.83695466 71.90020411 271.78433948 71.71470999 265.73168945 71.53027344 C257.52594689 71.28019868 249.32026547 71.02821121 241.11466408 70.77354622 C238.32856941 70.68758471 235.54242568 70.60339569 232.75627136 70.51939392 C223.81777962 70.2453577 214.88542953 69.91291228 205.95214844 69.50219727 C192.49517147 68.89267946 179.03315358 68.58647509 165.56640625 68.28125 C163.53245953 68.23421861 161.49852037 68.18686973 159.46458191 68.13948298 C153.05594278 67.99017648 146.64725425 67.84315439 140.23852539 67.69775391 C134.52785955 67.56816593 128.81724992 67.43639733 123.10668945 67.30224609 C97.24148625 66.69487781 71.37632335 66.10538545 45.50732422 65.68359375 C44.81655108 65.67233019 44.12577794 65.66106663 43.41407228 65.64946175 C28.94298134 65.41533182 14.47143449 65.21164804 0 65 C0 43.55 0 22.1 0 0 Z " fill="#63DCE5" transform="translate(0,1013)"/>
<path d="M0 0 C40.59663094 -0.1593645 81.13766592 0.15420099 121.72489446 1.16075903 C126.61078769 1.28187918 131.49675851 1.39936655 136.38278198 1.5151062 C177.76477043 2.49732747 219.12987229 3.76023738 260.49116707 5.40306854 C277.05357571 6.06021067 293.61940084 6.57333055 310.1875 7.0625 C328.31596399 7.59909858 346.44053719 8.18381258 364.56381226 8.87426758 C386.56028437 9.70951762 408.5590555 10.39936193 430.56302643 10.99902344 C432.77282391 11.0596947 434.98257718 11.12176166 437.19232178 11.18432617 C447.50080721 11.47456021 457.80995915 11.7182221 468.12018204 11.93788147 C471.08280583 12.00178615 474.04535031 12.06879676 477.00790405 12.13586426 C533.43668087 13.38523591 589.88313997 13.15391855 646.32229298 13.12946179 C656.87900961 13.12497577 667.4357152 13.12578213 677.99243164 13.13037109 C690.46400663 13.13579044 702.93557516 13.13779392 715.40715116 13.13475883 C721.93247304 13.13321197 728.45778892 13.13290195 734.98311043 13.13629532 C779.02457719 13.15609051 823.00942293 12.40916165 867.02368164 10.875 C875.58772813 10.57918999 884.15227181 10.30858005 892.71794891 10.06512833 C894.25325131 10.02131175 895.78853465 9.97682303 897.32379913 9.93169785 C939.98756863 8.68263214 982.66743079 8.81221488 1025.34514004 8.81488883 C1032.41028585 8.81458715 1039.47539291 8.80647061 1046.54052734 8.79418945 C1106.9079034 8.69164362 1167.21729318 9.3371855 1227.54484844 11.64927292 C1238.79469305 12.07766725 1250.04671375 12.39023001 1261.30078125 12.68359375 C1262.43058096 12.71327806 1263.56038067 12.74296238 1264.72441673 12.77354622 C1270.8062244 12.9331917 1276.88807613 13.09101619 1282.9699707 13.24731445 C1287.70215577 13.36919805 1292.43424388 13.49403358 1297.16625977 13.62231445 C1315.53499855 14.11921134 1333.90484566 14.54583105 1352.27599907 14.94107294 C1355.11264954 15.0024369 1357.94927778 15.06476157 1360.78590393 15.12723923 C1444.333608 16.96111534 1527.84808646 17.28985367 1611.41207372 17.20319679 C1624.13604753 17.19007926 1636.86000401 17.18473137 1649.58398438 17.18530273 C1748.96403202 17.26466322 1748.96403202 17.26466322 1848.33569336 16.13615417 C1857.32654514 15.97312986 1866.31778334 15.83750518 1875.30908203 15.7019043 C1878.28646875 15.65693252 1881.26385526 15.61194657 1884.24124146 15.56694031 C1884.95273476 15.55619524 1885.66422806 15.54545016 1886.39728177 15.53437948 C1897.59832246 15.36470138 1908.79914588 15.18153108 1920 15 C1920 28.2 1920 41.4 1920 55 C1914.28568555 55.63492383 1908.76335149 56.17393988 1903.0463562 56.33457947 C1902.29811337 56.35852408 1901.54987053 56.38246868 1900.77895367 56.40713888 C1898.29657689 56.48570085 1895.81407667 56.55914618 1893.33154297 56.63256836 C1891.53722709 56.68828016 1889.74292087 56.74430381 1887.94862366 56.8006134 C1883.07013883 56.95276812 1878.1915264 57.10039219 1873.31287527 57.24710536 C1868.11940967 57.40395414 1862.92606201 57.56462339 1857.73269653 57.7247467 C1848.93775779 57.99533834 1840.14273605 58.26308749 1831.34765625 58.52905273 C1822.49112774 58.7968964 1813.63468108 59.06724159 1804.77832031 59.34057617 C1761.8215536 60.66614972 1718.8643838 61.9722172 1675.90103769 63.06776738 C1673.6014423 63.12651432 1671.30186243 63.18583751 1669.002285 63.24528313 C1658.33534522 63.51984392 1647.6679306 63.76729916 1637 64 C1636.03789659 64.02123043 1635.07579318 64.04246086 1634.08453512 64.06433463 C1600.42124607 64.80446538 1566.77226456 65.16342127 1533.10109472 65.16725707 C1529.46612883 65.16798652 1525.83116634 65.17015477 1522.19620132 65.17275429 C1509.32318138 65.18191694 1496.45017153 65.18610179 1483.57714844 65.18530273 C1473.17706748 65.18477344 1462.77702445 65.19176757 1452.37695312 65.20581055 C1387.72195541 65.29100382 1323.12648898 64.87448214 1258.49510956 63.06944036 C1255.22921696 62.97854866 1251.96327877 62.8893603 1248.69734049 62.80012816 C1228.34743024 62.24342454 1207.99929909 61.63374717 1187.65158844 61.00228119 C1177.71233934 60.69407194 1167.77300861 60.38865133 1157.83350128 60.08887964 C1153.34897323 59.95341398 1148.86460727 59.81334621 1144.38026428 59.67185974 C1100.73608643 58.32599055 1057.09428336 57.84648382 1013.43099651 57.82955761 C1006.34128135 57.82658932 999.25157562 57.81780694 992.16186582 57.8089225 C979.0476361 57.79260365 965.93340584 57.78031512 952.81917 57.77020454 C933.89916744 57.75551799 914.97917877 57.73273509 896.0591863 57.70853943 C888.38343632 57.69875819 880.70768601 57.68923086 873.03193569 57.67970943 C872.17926911 57.67865067 871.32660253 57.6775919 870.44809756 57.67650105 C850.23322278 57.65144996 830.01834537 57.62892966 809.8034668 57.60717773 C808.92188359 57.6062273 808.04030038 57.60527686 807.13200254 57.60429762 C786.73766118 57.58233045 766.34331908 57.56146836 745.94897461 57.54260254 C745.08157778 57.54180012 744.21418094 57.54099769 743.32049936 57.54017096 C739.82200879 57.53693658 736.32351823 57.53370503 732.82502766 57.53047344 C689.94331722 57.49081777 647.06162009 57.44415292 604.17993511 57.38252524 C602.49940957 57.38011161 600.81888403 57.37770739 599.13835847 57.37531253 C515.71772011 57.2564253 432.30202718 57.06981839 348.88671875 56.0234375 C347.59239838 56.00720336 347.59239838 56.00720336 346.27193013 55.99064127 C324.8337898 55.72044822 303.39641246 55.40848399 281.95935154 55.06354547 C277.93119733 54.99889575 273.9030291 54.93519835 269.87485504 54.87180138 C179.90072305 53.4541696 89.92196266 51.4180863 0 48 C0 32.16 0 16.32 0 0 Z " fill="#FEFEFE" transform="translate(0,1078)"/>
</svg>
