<?xml version="1.0" encoding="UTF-8"?>
<svg version="1.1" xmlns="http://www.w3.org/2000/svg" width="88" height="120">
<path d="M0 0 C1.67247551 -0.01913956 1.67247551 -0.01913956 3.3787384 -0.03866577 C4.57464096 -0.04089142 5.77054352 -0.04311707 7.00268555 -0.04541016 C8.24181198 -0.05206696 9.48093842 -0.05872375 10.75761414 -0.06558228 C13.3776196 -0.07570087 15.9976508 -0.08039954 18.61767578 -0.08007812 C21.29373188 -0.07991555 23.96910373 -0.09380516 26.64501953 -0.12109375 C30.51445328 -0.15782058 34.38309464 -0.16755487 38.25268555 -0.17041016 C39.44251541 -0.18478119 40.63234528 -0.19915222 41.85823059 -0.21395874 C49.31232688 -0.17316779 55.0959352 0.44563306 60.8417511 5.66714478 C66.04712457 11.40152888 66.73838566 17.2250121 66.5769043 24.67333984 C65.99116115 30.80533839 62.7651622 34.32442454 58.3269043 38.29052734 C55.71427373 40.39119609 53.08779853 42.46959882 50.4362793 44.52099609 C48.24660621 46.11960594 48.24660621 46.11960594 47.3269043 48.29052734 C47.03090742 52.22177409 47.0488744 56.16194505 47.0144043 60.10302734 C46.98540039 61.19679687 46.95639648 62.29056641 46.92651367 63.41748047 C46.81833525 69.6530368 46.81833525 69.6530368 49.06518555 75.33349609 C51.27244489 77.24340444 53.46454801 79.07539196 55.8269043 80.79052734 C60.91693194 84.65192762 64.22195097 88.18882719 66.3269043 94.29052734 C67.23514801 101.35581856 66.63222024 107.47967148 62.3269043 113.29052734 C58.77372007 117.01472043 54.85289632 120.04485891 49.64639282 120.55122375 C48.62524384 120.55583115 47.60409485 120.56043854 46.55200195 120.56518555 C45.39044586 120.57471756 44.22888977 120.58424957 43.03213501 120.59407043 C41.15550674 120.59270332 41.15550674 120.59270332 39.2409668 120.59130859 C37.30645157 120.59773628 37.30645157 120.59773628 35.33285522 120.60429382 C32.60426725 120.61174745 29.87580867 120.61147147 27.1472168 120.60620117 C23.66139707 120.60041364 20.17610993 120.6173236 16.69037819 120.64054585 C13.35305266 120.65887893 10.01584235 120.65509669 6.6784668 120.65380859 C5.43142975 120.66301834 4.1843927 120.67222809 2.89956665 120.68171692 C-4.2147835 120.64377249 -9.03331381 120.23569437 -14.7199707 115.63427734 C-19.61844889 110.33133766 -21.44066045 105.51715053 -21.6730957 98.29052734 C-21.23909156 92.37980425 -18.81373744 87.49529407 -14.6730957 83.29052734 C-11.8774056 81.14527959 -9.03390876 79.13512709 -6.09887695 77.18505859 C-3.56394144 75.20527804 -2.82380495 74.2220031 -1.6730957 71.29052734 C-1.38394965 68.84426078 -1.38394965 68.84426078 -1.44262695 66.22802734 C-1.44552734 64.78556641 -1.44552734 64.78556641 -1.44848633 63.31396484 C-1.46073242 62.31623047 -1.47297852 61.31849609 -1.4855957 60.29052734 C-1.48624023 59.29279297 -1.48688477 58.29505859 -1.48754883 57.26708984 C-1.42072042 51.18968523 -1.42072042 51.18968523 -2.6730957 45.29052734 C-4.46709585 44.19992699 -4.46709585 44.19992699 -6.6730957 43.29052734 C-13.29880105 38.67164621 -19.02343764 34.43023218 -21.19262695 26.35693359 C-22.32870238 19.95246444 -20.99513156 14.6610744 -17.8605957 9.04052734 C-12.94917555 2.86617058 -7.88042307 0.06146843 0 0 Z " fill="#E04B00" transform="translate(21.673095703125,-0.29052734375)"/>
</svg>
