<?xml version="1.0" encoding="UTF-8"?>
<svg id="Camada_2" data-name="Camada 2" xmlns="http://www.w3.org/2000/svg" viewBox="0 0 86.63 119.57">
  <defs>
    <style>
      .cls-1 {
        fill: #000;
        stroke-width: 0px;
      }
    </style>
  </defs>
  <g id="Camada_2-2" data-name="Camada 2">
    <path class="cls-1" d="M78.43,82.55l-8.69-6.58c-2.17-1.65-3.45-4.22-3.45-6.95v-18.48c0-2.73,1.28-5.3,3.45-6.95l8.69-6.58C94.16,25.09,85.73,0,65.99,0H20.64C.9,0-7.54,25.09,8.2,37.01l8.69,6.58c2.17,1.65,3.45,4.22,3.45,6.95v18.48c0,2.73-1.28,5.3-3.45,6.95l-8.69,6.58c-15.73,11.93-7.3,37.01,12.44,37.01h45.35c19.74,0,28.17-25.09,12.44-37.01Z"/>
  </g>
</svg>