<?xml version="1.0" encoding="UTF-8"?>
<svg id="Camada_2" data-name="Camada 2" xmlns="http://www.w3.org/2000/svg" viewBox="0 0 873.66 1453.44">
  <defs>
    <style>
      .cls-1 {
        fill: #b5bdd2;
        stroke: #000;
        stroke-linecap: round;
        stroke-linejoin: round;
        stroke-width: 4px;
      }
    </style>
  </defs>
  <g id="Camada_2-2" data-name="Camada 2">
    <path class="cls-1" d="M862.19,1303.71c-2.73,0-5.3,1.28-6.95,3.45l-6.58,8.69c-11.93,15.73-37.01,7.3-37.01-12.44v-45.35c0-19.74,25.09-28.17,37.01-12.44l6.58,8.69c1.65,2.17,4.22,3.45,6.95,3.45h9.47v-232.56h-9.47c-2.73,0-5.3,1.28-6.95,3.45l-6.58,8.69c-11.93,15.73-37.01,7.3-37.01-12.44v-45.35c0-19.74,25.09-28.17,37.01-12.44l6.58,8.69c1.65,2.17,4.22,3.45,6.95,3.45h9.47v-232.56h-9.47c-2.73,0-5.3,1.28-6.95,3.45l-6.58,8.69c-11.93,15.73-37.01,7.3-37.01-12.44v-45.35c0-19.74,25.09-28.17,37.01-12.44l6.58,8.69c1.65,2.17,4.22,3.45,6.95,3.45h9.47v-227.24h-9.47c-2.73,0-5.3,1.28-6.95,3.45l-6.58,8.69c-11.93,15.73-37.01,7.3-37.01-12.44v-45.35c0-19.74,25.09-28.17,37.01-12.44l6.58,8.69c1.65,2.17,4.22,3.45,6.95,3.45h9.47v-227.24h-9.47c-2.73,0-5.3,1.28-6.95,3.45l-6.58,8.69c-11.93,15.73-37.01,7.3-37.01-12.44v-45.35c0-19.74,25.09-28.17,37.01-12.44l6.58,8.69c1.65,2.17,4.22,3.45,6.95,3.45h9.47V44.27c0-23.34-18.92-42.27-42.27-42.27h-93.72v9.05c0,2.73,1.28,5.3,3.45,6.95l8.69,6.58c15.73,11.93,7.3,37.01-12.44,37.01h-45.35c-19.74,0-28.17-25.09-12.44-37.01l8.69-6.58c2.17-1.65,3.45-4.22,3.45-6.95V2h-227.24v9.05c0,2.73,1.28,5.3,3.45,6.95l8.69,6.58c15.73,11.93,7.3,37.01-12.44,37.01h-45.35c-19.74,0-28.17-25.09-12.44-37.01l8.69-6.58c2.17-1.65,3.45-4.22,3.45-6.95V2h-232.57v9.05c0,2.73,1.28,5.3,3.45,6.95l8.69,6.58c15.73,11.93,7.3,37.01-12.44,37.01h-45.35c-19.74,0-28.17-25.09-12.44-37.01l8.69-6.58c2.17-1.65,3.45-4.22,3.45-6.95V2H44.27C20.92,2,2,20.92,2,44.27v110.03h9.24c2.73,0,5.3-1.28,6.95-3.45l6.58-8.69c11.93-15.73,37.01-7.3,37.01,12.44v45.35c0,19.74-25.09,28.17-37.01,12.44l-6.58-8.69c-1.65-2.17-4.22-3.45-6.95-3.45H2v227.24h9.24c2.73,0,5.3-1.28,6.95-3.45l6.58-8.69c11.93-15.73,37.01-7.3,37.01,12.44v45.35c0,19.74-25.09,28.17-37.01,12.44l-6.58-8.69c-1.65-2.17-4.22-3.45-6.95-3.45H2v227.24h9.24c2.73,0,5.3-1.28,6.95-3.45l6.58-8.69c11.93-15.73,37.01-7.3,37.01,12.44v45.35c0,19.74-25.09,28.17-37.01,12.44l-6.58-8.69c-1.65-2.17-4.22-3.45-6.95-3.45H2v232.56h9.24c2.73,0,5.3-1.28,6.95-3.45l6.58-8.69c11.93-15.73,37.01-7.3,37.01,12.44v45.35c0,19.74-25.09,28.17-37.01,12.44l-6.58-8.69c-1.65-2.17-4.22-3.45-6.95-3.45H2v232.56h9.24c2.73,0,5.3-1.28,6.95-3.45l6.58-8.69c11.93-15.73,37.01-7.3,37.01,12.44v45.35c0,19.74-25.09,28.17-37.01,12.44l-6.58-8.69c-1.65-2.17-4.22-3.45-6.95-3.45H2v105.46c0,23.34,18.92,42.27,42.27,42.27h93.72v-9.43c0-2.73-1.28-5.3-3.45-6.95l-8.69-6.58c-15.73-11.93-7.3-37.01,12.44-37.01h45.35c19.74,0,28.17,25.09,12.44,37.01l-8.69,6.58c-2.17,1.65-3.45,4.22-3.45,6.95v9.43h232.57v-9.43c0-2.73-1.28-5.3-3.45-6.95l-8.69-6.58c-15.73-11.93-7.3-37.01,12.44-37.01h45.35c19.74,0,28.17,25.09,12.44,37.01l-8.69,6.58c-2.17,1.65-3.45,4.22-3.45,6.95v9.43h227.24v-9.43c0-2.73-1.28-5.3-3.45-6.95l-8.69-6.58c-15.73-11.93-7.3-37.01,12.44-37.01h45.35c19.74,0,28.17,25.09,12.44,37.01l-8.69,6.58c-2.17,1.65-3.45,4.22-3.45,6.95v9.43h93.72c23.34,0,42.27-18.92,42.27-42.27v-105.46h-9.47Z"/>
  </g>
</svg>