<?xml version="1.0" encoding="UTF-8"?>
<svg version="1.1" xmlns="http://www.w3.org/2000/svg" width="881" height="1460">
<path d="M0 0 C2.35460454 -0.00015513 4.70920933 -0.0016465 7.06381226 -0.00440979 C11.97413557 -0.00578825 16.88416478 0.0066811 21.79443359 0.02954102 C28.09856078 0.05808083 34.40220561 0.05513853 40.7063694 0.0424509 C45.55667272 0.03551442 50.40686359 0.04325712 55.25715256 0.05570793 C57.58326156 0.0602312 59.90938259 0.06055163 62.23549271 0.05664253 C65.47186593 0.05374633 68.70756009 0.07015555 71.94384766 0.09204102 C72.90898285 0.08753937 73.87411804 0.08303772 74.86849976 0.07839966 C75.7458075 0.08830429 76.62311523 0.09820892 77.52700806 0.1084137 C78.2912591 0.11084359 79.05551014 0.11327349 79.8429203 0.11577702 C81.7109375 0.49609375 81.7109375 0.49609375 83.7109375 3.49609375 C84.01171875 6.859375 84.01171875 6.859375 84.0234375 10.80859375 C84.04019531 12.10410156 84.05695313 13.39960938 84.07421875 14.734375 C83.52174213 20.45518129 82.05236197 23.3465483 77.6796875 27.09375 C76.5321487 27.92748814 75.37562954 28.74899074 74.2109375 29.55859375 C69.36859865 32.95682046 65.3553561 35.83277721 64.27734375 41.9609375 C64.26838205 47.63369379 64.74972643 51.10664364 68.7109375 55.49609375 C72.33049049 58.0695823 74.80973549 58.87493795 79.23217773 58.90014648 C80.31357529 58.91283066 81.39497284 58.92551483 82.50914001 58.93858337 C83.66756912 58.93564774 84.82599823 58.9327121 86.01953125 58.9296875 C87.21900894 58.93492935 88.41848663 58.9401712 89.65431213 58.9455719 C92.18856025 58.95198954 94.72283816 58.95065848 97.25708008 58.94213867 C101.13091173 58.93363223 105.00326722 58.96239112 108.87695312 58.99414062 C111.34114539 58.99575284 113.80534027 58.99517472 116.26953125 58.9921875 C117.42593613 59.00342148 118.582341 59.01465546 119.77378845 59.02622986 C126.05393379 58.97190894 129.96132915 58.76295989 134.7109375 54.49609375 C138.08231809 50.67519575 138.09099645 46.97494724 138.20703125 42.09375 C136.74484345 34.4374123 130.47996137 30.92811004 124.48828125 26.83984375 C120.24230911 23.2567449 118.87955463 20.24209689 118.34765625 14.734375 C118.37279297 12.79111328 118.37279297 12.79111328 118.3984375 10.80859375 C118.40230469 9.50535156 118.40617188 8.20210937 118.41015625 6.859375 C118.7109375 3.49609375 118.7109375 3.49609375 120.7109375 0.49609375 C123.87522838 0.19764498 126.84424375 0.09656147 130.01135254 0.12187195 C130.98761927 0.11789754 131.963886 0.11392314 132.96973658 0.10982829 C136.26187075 0.10015497 139.55358057 0.11205385 142.84570312 0.1237793 C145.19740459 0.121353 147.54910504 0.11763525 149.90080261 0.11271667 C156.30356153 0.10328195 162.70616826 0.11275481 169.10891533 0.1260488 C175.11882752 0.13746506 181.1287439 0.13375241 187.13866335 0.13184629 C199.0470579 0.12865409 210.9553927 0.14033729 222.86376953 0.15991211 C234.42856669 0.17891726 245.99329381 0.18599995 257.55810547 0.18041992 C270.14048974 0.1743669 282.72284319 0.17453043 295.3052249 0.18590575 C301.96975009 0.19190698 308.63425517 0.19556854 315.29878235 0.19293785 C321.56301321 0.19106012 327.82715366 0.19911903 334.09136391 0.21499825 C336.39647866 0.21925636 338.70160257 0.22008147 341.00671959 0.21730804 C344.14142121 0.21410755 347.27584902 0.22311397 350.41052246 0.23539734 C351.33326918 0.23161802 352.2560159 0.22783869 353.20672464 0.22394484 C359.48260882 0.26776507 359.48260882 0.26776507 361.7109375 2.49609375 C362.47952691 9.20254647 363.33773291 16.95273 360.4609375 23.21875 C358.68046921 25.29184155 356.90567157 26.86903224 354.7109375 28.49609375 C353.93105469 29.09292969 353.15117187 29.68976562 352.34765625 30.3046875 C350.79030022 31.48990935 349.23175955 32.6735767 347.671875 33.85546875 C344.89783784 36.17637633 343.68799239 38.00661198 342.7109375 41.49609375 C342.59988278 46.70641101 343.24609861 51.43386885 346.7109375 55.49609375 C352.45239222 59.43944668 358.41969441 58.94673594 365.1171875 58.9296875 C366.31525024 58.93492935 367.51331299 58.9401712 368.74768066 58.9455719 C371.27595242 58.95198377 373.80425403 58.95066598 376.33251953 58.94213867 C380.1974805 58.9336234 384.06096595 58.96241343 387.92578125 58.99414062 C390.38541622 58.99575264 392.84505381 58.9951751 395.3046875 58.9921875 C396.45795532 59.00342148 397.61122314 59.01465546 398.79943848 59.02622986 C405.05260048 58.97198089 409.00949112 58.7941529 413.7109375 54.49609375 C416.3902736 50.56640081 417.0623953 47.2494442 417.20703125 42.62109375 C415.75624842 36.40671691 410.84319594 32.63017743 406.0859375 28.87109375 C398.69558173 23.01089975 398.69558173 23.01089975 397.7109375 19.49609375 C397.44541736 16.61448564 397.43182306 13.76312819 397.4609375 10.87109375 C397.45320313 10.09507813 397.44546875 9.3190625 397.4375 8.51953125 C397.45753484 2.74949641 397.45753484 2.74949641 399.7109375 0.49609375 C402.76257248 0.29577027 405.72379918 0.22255859 408.77684021 0.23539734 C409.72790006 0.23157179 410.67895991 0.22774624 411.65883976 0.22380477 C414.86563264 0.21343442 418.07224781 0.21747455 421.27905273 0.22143555 C423.57001919 0.21709131 425.8609842 0.21190913 428.15194702 0.20594788 C434.38945068 0.19251571 440.6268939 0.19198388 446.86440921 0.19451118 C452.06353849 0.19557803 457.2626554 0.19070487 462.46178204 0.18590575 C475.42490193 0.17415999 488.38798311 0.17504398 501.35110468 0.18146256 C512.61690771 0.18663236 523.88262428 0.17537637 535.14841019 0.15636434 C546.70739611 0.13700659 558.26633085 0.12901808 569.82533413 0.1324876 C576.31832937 0.13430507 582.81124543 0.13161822 589.30422783 0.11777306 C595.40843234 0.10524487 601.5124632 0.10709117 607.61666489 0.12018394 C609.86169937 0.12256023 612.10674588 0.1197777 614.35176659 0.11156082 C617.40739948 0.10118042 620.46244028 0.1091237 623.51805115 0.12187195 C624.41453934 0.11449766 625.31102753 0.10712338 626.23468202 0.09952563 C627.4592384 0.11033545 627.4592384 0.11033545 628.70853329 0.12136364 C629.41410868 0.12130862 630.11968407 0.12125361 630.84664053 0.12119693 C633.31093824 0.61674962 634.19799303 1.51897717 635.7109375 3.49609375 C636.64366989 10.10925045 636.8620383 17.72846231 633.3828125 23.640625 C630.25910645 27.10735485 626.29499085 29.57840279 622.515625 32.28125 C618.80216172 35.21374816 616.51626056 37.76919752 615.7109375 42.49609375 C615.73770974 46.85996874 616.28484883 50.77060525 619.125 54.20703125 C623.10720573 57.60073367 625.79488031 58.62053251 630.89160156 58.6730957 C632.51403778 58.69234856 632.51403778 58.69234856 634.16925049 58.71199036 C635.93011993 58.72307076 635.93011993 58.72307076 637.7265625 58.734375 C639.5321463 58.74648262 639.5321463 58.74648262 641.37420654 58.75883484 C643.9263769 58.77268579 646.47856587 58.7834034 649.03076172 58.79125977 C652.93102232 58.80846181 656.83043319 58.85233954 660.73046875 58.89648438 C663.20832709 58.90661194 665.68619265 58.91512784 668.1640625 58.921875 C669.91278656 58.94813713 669.91278656 58.94813713 671.69683838 58.97492981 C677.9896951 58.95810507 681.98707679 58.83981121 686.7109375 54.49609375 C689.71640166 50.08807964 690.69082758 45.72217416 689.7109375 40.49609375 C687.71076875 35.24390238 684.71225419 32.56255779 680.2109375 29.43359375 C672.57522785 24.0750525 672.57522785 24.0750525 670.7109375 19.49609375 C670.33225787 16.58622064 670.33630684 13.73867576 670.3984375 10.80859375 C670.39521484 10.03708984 670.39199219 9.26558594 670.38867188 8.47070312 C670.44350061 2.76353064 670.44350061 2.76353064 672.7109375 0.49609375 C674.5789547 0.23882484 674.5789547 0.23882484 676.89486694 0.22866821 C677.77217468 0.22013824 678.64948242 0.21160828 679.55337524 0.20281982 C681.00107803 0.20417938 681.00107803 0.20417938 682.47802734 0.20556641 C683.49292236 0.19884918 684.50781738 0.19213196 685.5534668 0.18521118 C688.92631874 0.16613594 692.29897238 0.162301 695.671875 0.16015625 C698.01681602 0.15373066 700.36175623 0.14700248 702.70669556 0.13998413 C707.63472346 0.12798455 712.56268116 0.12430563 717.49072266 0.12548828 C723.78298089 0.12569064 730.07478324 0.09848605 736.36693382 0.06394386 C741.21764152 0.04161052 746.06824108 0.03765286 750.9189949 0.03870773 C753.23685896 0.03635771 755.55472627 0.02756818 757.87253952 0.012043 C775.70152635 -0.09610984 790.19370651 0.92225369 804 13.59765625 C819.10753009 29.6105065 818.17660576 49.36186746 818.14453125 70 C818.14909719 72.57258746 818.15440399 75.14517369 818.16041565 77.71775818 C818.16931296 83.08443793 818.167195 88.450954 818.15698242 93.81762695 C818.14544798 100.01583503 818.15968466 106.21361309 818.1863789 112.41176468 C818.21118918 118.39778837 818.21371968 124.38359021 818.20726204 130.36967278 C818.20710853 132.90905412 818.21317697 135.44844368 818.22555351 137.98779488 C818.24038262 141.52547839 818.2298489 145.06220072 818.21264648 148.59985352 C818.22231445 149.6497345 818.23198242 150.69961548 818.24194336 151.78131104 C818.16997185 158.82725918 818.16997185 158.82725918 815.89369202 162.14390564 C812.69280548 164.12681333 810.13447049 164.02613221 806.3984375 163.99609375 C804.48611328 164.0115625 804.48611328 164.0115625 802.53515625 164.02734375 C796.56973918 163.19864434 792.66184167 160.96788501 788.98046875 156.33203125 C788.14839742 155.18776989 787.3293666 154.03391577 786.5234375 152.87109375 C783.03280686 147.58446501 783.03280686 147.58446501 777.7109375 144.49609375 C772.74742046 143.79170024 768.79689634 143.96298668 764.2734375 146.18359375 C760.99896791 149.13860289 758.97248277 151.70902728 758.32325745 156.14500427 C758.31785446 157.09287308 758.31245148 158.04074188 758.30688477 159.01733398 C758.29420059 160.09873154 758.28151642 161.18012909 758.26844788 162.29429626 C758.27138351 163.45272537 758.27431915 164.61115448 758.27734375 165.8046875 C758.26948097 167.60390404 758.26948097 167.60390404 758.26145935 169.43946838 C758.25504171 171.9737165 758.25637277 174.50799441 758.26489258 177.04223633 C758.27339902 180.91606798 758.24464013 184.78842347 758.21289062 188.66210938 C758.21127841 191.12630164 758.21185653 193.59049652 758.21484375 196.0546875 C758.20360977 197.21109238 758.19237579 198.36749725 758.18080139 199.5589447 C758.23512231 205.83909004 758.44407136 209.7464854 762.7109375 214.49609375 C766.5318355 217.86747434 770.23208401 217.8761527 775.11328125 217.9921875 C782.76961895 216.5299997 786.27892121 210.26511762 790.3671875 204.2734375 C793.34020073 200.75041682 796.01078729 198.90033036 800.64013672 198.20727539 C802.73627377 198.05933332 804.79750651 198.03729399 806.8984375 198.05859375 C807.60935547 198.03861328 808.32027344 198.01863281 809.05273438 197.99804688 C814.1353399 198.00282825 814.1353399 198.00282825 816.41100502 199.95298767 C818.38052348 203.80602961 818.12433322 207.41288034 818.09188843 211.68188477 C818.09890839 213.09160348 818.09890839 213.09160348 818.10607016 214.52980137 C818.11805959 217.68667675 818.10854739 220.8431212 818.09912109 224 C818.10318503 226.26008356 818.10852591 228.52016513 818.11505127 230.78024292 C818.12875173 236.92475613 818.1234149 243.06911857 818.11391401 249.21363449 C818.10633158 255.63664921 818.11335908 262.05965081 818.11807251 268.48266602 C818.12388427 279.96149673 818.11454704 291.44024377 818.0992945 302.91906035 C818.08589108 313.32856127 818.0882191 323.73796183 818.10205078 334.14746094 C818.11810234 346.23327486 818.12408299 358.31901296 818.11521399 370.40484142 C818.11053101 376.80337624 818.1099298 383.20184191 818.11982346 389.60037231 C818.12847369 395.61515325 818.12250667 401.62974419 818.10514069 407.64450455 C818.10116546 409.85525319 818.1023275 412.06601774 818.10892868 414.2767601 C818.11709323 417.28815867 818.10688405 420.29894355 818.09188843 423.31030273 C818.09858059 424.190841 818.10527276 425.07137926 818.11216772 425.9786005 C818.07807107 429.49441007 818.02790463 431.87599921 816.41100502 435.03919983 C813.60533899 437.44355009 810.40612559 437.03217791 806.8984375 436.93359375 C806.19912109 436.94068359 805.49980469 436.94777344 804.77929688 436.95507812 C800.06748936 436.89777831 796.71758847 436.18021508 792.7109375 433.49609375 C790.87107461 431.34912593 789.25091973 429.30141906 787.6484375 426.99609375 C782.89713825 420.21910719 782.89713825 420.21910719 775.46484375 417.09765625 C770.49898743 417.15076701 766.90995553 417.56654629 762.7109375 420.49609375 C757.65172921 426.04594804 758.12884851 431.66120192 758.1796875 438.90234375 C758.1758606 440.10040649 758.17203369 441.29846924 758.16809082 442.53283691 C758.16537374 445.0611251 758.17272051 447.5894415 758.18945312 450.11767578 C758.2108635 453.98273523 758.18964225 457.84593572 758.1640625 461.7109375 C758.16670581 464.17057701 758.17183085 466.63021537 758.1796875 469.08984375 C758.16754211 470.81974548 758.16754211 470.81974548 758.15515137 472.58459473 C758.22810195 478.84086507 758.44016271 482.77576372 762.7109375 487.49609375 C766.22874151 490.18073365 769.28417877 491.32249537 773.7109375 491.49609375 C780.51207324 489.63371378 783.37605087 487.25078263 787.2734375 481.49609375 C790.83195894 476.2890219 793.40914865 473.39890662 799.7109375 471.49609375 C803.31640625 471.0625 803.31640625 471.0625 806.8984375 471.05859375 C808.68314453 471.02958984 808.68314453 471.02958984 810.50390625 471 C813.7109375 471.49609375 813.7109375 471.49609375 815.88005161 472.95298767 C818.61173881 476.74730952 818.26197667 480.11338145 818.21214294 484.68188477 C818.21767734 485.62169724 818.22321174 486.56150972 818.22891384 487.52980137 C818.24255413 490.68680123 818.22753254 493.84301515 818.21264648 497 C818.21642842 499.2600844 818.22192742 501.52016648 818.22901917 503.78024292 C818.24300727 509.92480491 818.2317803 516.06908793 818.21530795 522.21363449 C818.2014817 528.63664736 818.20791476 535.05964364 818.21144104 541.48266602 C818.21414508 552.27007632 818.20073824 563.0573489 818.17749023 573.84472656 C818.1535691 584.94567999 818.14648581 596.04648637 818.15698242 607.14746094 C818.16960599 620.521833 818.16710355 633.89610101 818.15132332 647.27047729 C818.14555692 652.38045846 818.14565135 657.49039041 818.15038872 662.60037231 C818.15515253 668.61516406 818.14508136 674.62975165 818.12343407 680.64450455 C818.11785792 682.85524939 818.11740844 685.06601383 818.12238693 687.2767601 C818.1283192 690.2881694 818.11587392 693.29895016 818.09861755 696.31030273 C818.10763262 697.63111013 818.10763262 697.63111013 818.11682981 698.9786005 C818.0801497 702.48443712 818.02412458 704.87761901 816.42425632 708.03700256 C813.50618262 710.52208331 810.04071749 710.07036284 806.3984375 709.99609375 C805.65142578 710.0115625 804.90441406 710.02703125 804.13476562 710.04296875 C798.8735734 710.00601569 795.84403999 708.98653123 791.7109375 705.49609375 C789.3671875 702.83984375 789.3671875 702.83984375 787.2109375 699.99609375 C781.44251661 692.67431073 781.44251661 692.67431073 772.7734375 689.99609375 C768.1937833 690.25051898 765.4071529 691.81452572 761.7109375 694.49609375 C759.08890656 698.09417851 758.33385929 700.60885459 758.32275391 705.03320312 C758.31329742 706.11782837 758.30384094 707.20245361 758.2940979 708.31994629 C758.30017059 709.48151245 758.30624329 710.64307861 758.3125 711.83984375 C758.30819473 713.6426178 758.30819473 713.6426178 758.30380249 715.48181152 C758.30176299 718.02026847 758.30728481 720.55874117 758.31982422 723.09716797 C758.33587844 726.98180293 758.31997055 730.86539739 758.30078125 734.75 C758.3027637 737.21745021 758.30660741 739.68489978 758.3125 742.15234375 C758.30642731 743.31390991 758.30035461 744.47547607 758.2940979 745.67224121 C758.30355438 746.75686646 758.31301086 747.8414917 758.32275391 748.95898438 C758.32514069 749.90986938 758.32752747 750.86075439 758.32998657 751.8404541 C758.93923165 756.08755066 760.95664285 758.72024782 763.8984375 761.74609375 C767.38001225 763.91240693 770.644112 764.88307541 774.7109375 764.49609375 C780.69646259 762.57880156 783.6130265 759.9089581 787.3984375 754.99609375 C795.00363197 745.37493609 795.00363197 745.37493609 800.7109375 744.49609375 C802.87370134 744.32951724 805.04228301 744.23084654 807.2109375 744.18359375 C808.89703125 744.12751953 808.89703125 744.12751953 810.6171875 744.0703125 C813.7109375 744.49609375 813.7109375 744.49609375 815.87255096 745.93435669 C818.63892609 749.7892183 818.26464224 753.27317272 818.21887207 757.90966797 C818.22511203 758.87398176 818.231352 759.83829556 818.23778105 760.83183098 C818.25376989 764.07172782 818.24108348 767.31087847 818.22851562 770.55078125 C818.23393411 772.86997925 818.24105522 775.18917381 818.24975586 777.50836182 C818.26802453 783.81406305 818.26090691 790.11950312 818.24823952 796.42520905 C818.23813027 803.01639015 818.24749942 809.60754851 818.25378418 816.19873047 C818.26233387 827.97816728 818.24908305 839.75749399 818.22874683 851.53691173 C818.21087553 862.21932827 818.21397955 872.90157096 818.23242188 883.58398438 C818.25382331 895.98623579 818.26179851 908.38837632 818.24997282 920.79064369 C818.24372852 927.35687053 818.24292804 933.92297758 818.25611877 940.48919678 C818.26765171 946.66161808 818.259698 952.83371024 818.23654175 959.00609589 C818.23124102 961.27489423 818.23279159 963.54372016 818.24159241 965.81250763 C818.25247732 968.90288884 818.23886913 971.9922066 818.21887207 975.08251953 C818.22779496 975.98640348 818.23671784 976.89028744 818.24591112 977.82156181 C818.16984455 983.85656727 818.16984455 983.85656727 815.87743378 987.05123901 C811.17411439 990.18792259 805.10111001 989.05390688 799.7109375 988.49609375 C792.31675092 986.99054509 788.87512921 981.17220179 784.88671875 975.2734375 C782.01433964 971.60689972 779.30225896 969.99117154 774.8984375 968.62109375 C770.63605435 968.45394147 767.42422435 969.41380283 763.7109375 971.49609375 C759.83227155 975.57366565 758.59100918 978.14268847 758.53393555 983.67675781 C758.51468269 985.29919403 758.51468269 985.29919403 758.49504089 986.95440674 C758.48765396 988.1283197 758.48026703 989.30223267 758.47265625 990.51171875 C758.4645845 991.71544128 758.45651276 992.91916382 758.44819641 994.15936279 C758.43434546 996.71153315 758.42362785 999.26372212 758.41577148 1001.81591797 C758.39856944 1005.71617857 758.35469171 1009.61558944 758.31054688 1013.515625 C758.30041931 1015.99348334 758.29190341 1018.4713489 758.28515625 1020.94921875 C758.26764816 1022.11503479 758.25014008 1023.28085083 758.23210144 1024.48199463 C758.24892618 1030.77485135 758.36722004 1034.77223304 762.7109375 1039.49609375 C767.11895161 1042.50155791 771.48485709 1043.47598383 776.7109375 1042.49609375 C781.96312887 1040.495925 784.64447346 1037.49741044 787.7734375 1032.99609375 C793.11643366 1025.38253524 793.11643366 1025.38253524 797.7109375 1023.49609375 C800.59912156 1023.06910369 803.42032725 1023.03122881 806.3359375 1023.05859375 C807.0990625 1023.03861328 807.8621875 1023.01863281 808.6484375 1022.99804688 C814.12408877 1023.00285008 814.12408877 1023.00285008 816.42687416 1024.93833065 C818.39622505 1028.86113795 818.12393339 1032.58494582 818.09188843 1036.91639709 C818.09890839 1038.36392613 818.09890839 1038.36392613 818.10607016 1039.84069818 C818.11806135 1043.08282096 818.10854671 1046.32452427 818.09912109 1049.56665039 C818.10318493 1051.88746895 818.10852574 1054.20828557 818.11505127 1056.52909851 C818.12875223 1062.83882727 818.12341489 1069.14840922 818.11391401 1075.45814061 C818.10633274 1082.05245571 818.11335867 1088.64675803 818.11807251 1095.24107361 C818.12448453 1107.0249527 818.11454673 1118.80876988 818.0992945 1130.59263825 C818.08588794 1141.28159993 818.08822169 1151.9704639 818.10205078 1162.65942383 C818.11809695 1175.06787774 818.12408609 1187.47626932 818.11521399 1199.88473219 C818.11052895 1206.45482095 818.10993551 1213.02484236 818.11982346 1219.59492683 C818.12846705 1225.76975418 818.12251894 1231.94439631 818.10514069 1238.11920357 C818.10116206 1240.39003695 818.10233325 1242.66088582 818.10892868 1244.9317131 C818.11707979 1248.02227971 818.10690056 1251.11224609 818.09188843 1254.20277405 C818.10192668 1255.56296924 818.10192668 1255.56296924 818.11216772 1256.95064312 C818.10434447 1257.77623083 818.09652123 1258.60181853 818.08846092 1259.45242405 C818.08797387 1260.16602858 818.08748681 1260.87963311 818.08698499 1261.61486202 C817.58789775 1264.1116178 816.73929252 1264.98795766 814.7109375 1266.49609375 C811.84578991 1266.82295026 809.26001373 1266.96033745 806.3984375 1266.93359375 C805.27791992 1266.96356445 805.27791992 1266.96356445 804.13476562 1266.99414062 C798.8591669 1266.98950884 795.85722898 1266.00358426 791.7109375 1262.49609375 C789.3671875 1259.83984375 789.3671875 1259.83984375 787.2109375 1256.99609375 C781.45127881 1249.71427465 781.45127881 1249.71427465 772.8359375 1246.93359375 C768.07274485 1247.18091337 764.23173359 1249.35547752 760.7109375 1252.49609375 C758.72708895 1255.69737418 758.45433437 1258.18472437 758.4362793 1261.91967773 C758.42674728 1263.00437851 758.41721527 1264.08907928 758.40739441 1265.20664978 C758.40830582 1266.37337723 758.40921722 1267.54010468 758.41015625 1268.7421875 C758.40372856 1270.54708397 758.40372856 1270.54708397 758.39717102 1272.38844299 C758.39142852 1274.9328651 758.39092686 1277.47730362 758.39526367 1280.02172852 C758.39842255 1283.91516114 758.37496593 1287.80783326 758.34960938 1291.70117188 C758.34733629 1294.17317612 758.34663293 1296.64518242 758.34765625 1299.1171875 C758.3384465 1300.28189072 758.32923676 1301.44659393 758.31974792 1302.64659119 C758.32597672 1303.73444412 758.33220551 1304.82229706 758.33862305 1305.94311523 C758.33799362 1306.89701645 758.3373642 1307.85091766 758.3367157 1308.83372498 C758.93074256 1313.0598779 760.95477024 1315.69544606 763.8359375 1318.74609375 C767.6460821 1321.0653122 771.25189241 1321.89879897 775.7109375 1321.49609375 C781.11141374 1319.48979166 783.88948511 1316.38691304 787.3359375 1311.99609375 C795.02480896 1302.36364645 795.02480896 1302.36364645 800.7109375 1301.49609375 C802.70850752 1301.37938789 804.71000026 1301.32109961 806.7109375 1301.30859375 C807.7421875 1301.29441406 808.7734375 1301.28023437 809.8359375 1301.265625 C812.70579157 1301.49568124 814.32553304 1301.92238942 816.7109375 1303.49609375 C817.88492569 1305.84407012 817.84162897 1307.23895769 817.85137939 1309.85638428 C817.85994461 1311.23111656 817.85994461 1311.23111656 817.86868286 1312.63362122 C817.86980072 1313.64236801 817.87091858 1314.65111481 817.87207031 1315.69042969 C817.87703522 1316.75087997 817.88200012 1317.81133026 817.88711548 1318.90391541 C817.90177515 1322.42943972 817.90854872 1325.9549189 817.9140625 1329.48046875 C817.91981493 1331.93271893 817.92557265 1334.38496909 817.93133545 1336.83721924 C817.94185904 1341.99223032 817.94769146 1347.14722577 817.95117188 1352.30224609 C817.95663114 1358.87894582 817.98059827 1365.45543584 818.00914383 1372.03207016 C818.0278635 1377.10588155 818.03298097 1382.17964364 818.03450775 1387.25348663 C818.0375185 1389.67575465 818.04549312 1392.09802212 818.05869293 1394.52025604 C818.15775948 1414.11329001 818.22383074 1431.88646761 803.8359375 1446.87109375 C792.89089277 1457.19444685 781.57225177 1460.63959112 766.73583984 1460.65722656 C765.73531082 1460.66219147 764.7347818 1460.66715637 763.70393372 1460.67227173 C760.40157378 1460.68685182 757.0992618 1460.69368635 753.796875 1460.69921875 C751.50192259 1460.70497102 749.2069702 1460.71072874 746.91201782 1460.7164917 C742.10540544 1460.72698804 737.29880973 1460.73284052 732.4921875 1460.73632812 C726.32365165 1460.74182802 720.15533484 1460.76589368 713.9868679 1460.79430008 C709.24977971 1460.81288591 704.5127449 1460.81812976 699.77562332 1460.819664 C697.50056376 1460.82269725 695.22550528 1460.83074824 692.95048141 1460.84384918 C689.77589722 1460.86083428 686.60185682 1460.85904852 683.42724609 1460.85253906 C682.48276108 1460.86175385 681.53827606 1460.87096863 680.56517029 1460.88046265 C679.70161423 1460.87489349 678.83805817 1460.86932434 677.94833374 1460.86358643 C676.82288682 1460.86578627 676.82288682 1460.86578627 675.6747036 1460.86803055 C673.12343354 1460.38482065 672.24775056 1459.56428652 670.7109375 1457.49609375 C669.90162703 1450.87578826 668.96462858 1441.70984357 673.03515625 1436.0703125 C676.38986919 1432.9189155 680.14381183 1430.30225892 683.93359375 1427.70703125 C687.34218182 1424.9935842 689.29770819 1422.60319094 690.14453125 1418.28515625 C690.15494515 1412.51585714 689.23254261 1409.12978468 685.7109375 1404.49609375 C680.10516239 1400.59508548 674.30504988 1401.061736 667.7421875 1401.09765625 C666.58851685 1401.09478607 665.43484619 1401.09191589 664.24621582 1401.08895874 C661.81208809 1401.08692131 659.37794387 1401.0924286 656.94384766 1401.10498047 C653.22391045 1401.12103775 649.50505977 1401.10511987 645.78515625 1401.0859375 C643.41666428 1401.08791999 641.04817297 1401.09176378 638.6796875 1401.09765625 C637.57016724 1401.09158356 636.46064697 1401.08551086 635.31750488 1401.07925415 C629.73607345 1401.12994242 625.46901096 1401.22613006 620.7109375 1404.49609375 C617.21722221 1408.65078221 615.80633895 1412.05821083 615.7109375 1417.49609375 C617.49638689 1424.16177148 621.42522229 1427.30430861 626.7109375 1431.49609375 C628.00938574 1432.52929478 629.3015448 1433.57047127 630.5859375 1434.62109375 C631.14023437 1435.05679687 631.69453125 1435.4925 632.265625 1435.94140625 C635.93674218 1439.8903377 636.0068285 1444.3821227 636.0234375 1449.55859375 C636.04019531 1450.76644531 636.05695312 1451.97429687 636.07421875 1453.21875 C635.66458506 1456.91426254 635.46730498 1458.03968472 632.7109375 1460.49609375 C629.67071315 1461.11050676 626.65486842 1461.02623386 623.56274414 1460.99057007 C622.14099805 1460.99781331 622.14099805 1460.99781331 620.69052982 1461.00520289 C617.50044118 1461.01651436 614.31114695 1460.99912379 611.12109375 1460.98193359 C608.83983136 1460.98407845 606.55857004 1460.98795463 604.27731323 1460.99343872 C598.07076877 1461.00315442 591.86451077 1460.98780087 585.65800095 1460.96753263 C579.17312684 1460.95000167 572.68826211 1460.95348594 566.20336914 1460.95425415 C555.31163639 1460.95237947 544.42001703 1460.93510055 533.52832031 1460.90771484 C522.31671125 1460.87953926 511.10519964 1460.86537327 499.89355469 1460.86669922 C499.20305609 1460.86677913 498.5125575 1460.86685904 497.80113471 1460.86694138 C497.11184201 1460.86702209 496.42254932 1460.8671028 495.71236897 1460.86718595 C483.6032199 1460.8684952 471.49411803 1460.85820491 459.38497925 1460.84160233 C454.223945 1460.83452824 449.06292485 1460.83087462 443.90188599 1460.82981491 C437.82805013 1460.82781029 431.75431721 1460.81563547 425.68051529 1460.79548264 C423.44677485 1460.78962585 421.21302257 1460.78718327 418.97927475 1460.78833771 C415.93911626 1460.78931459 412.89924891 1460.7780526 409.85913086 1460.76351929 C408.96721574 1460.76661649 408.07530062 1460.7697137 407.15635777 1460.77290475 C401.05347473 1460.7244519 401.05347473 1460.7244519 397.7109375 1458.49609375 C397.37870151 1455.49100428 397.24729432 1452.75018325 397.2734375 1449.74609375 C397.25345703 1448.946875 397.23347656 1448.14765625 397.21289062 1447.32421875 C397.21735206 1441.8991106 398.03201273 1438.72502389 401.7109375 1434.49609375 C404.68586396 1432.10017982 407.7794561 1429.99198712 410.93359375 1427.83984375 C414.9845168 1424.42134329 416.52510154 1421.23056272 417.0859375 1415.99609375 C416.5299949 1410.80729613 415.044611 1407.72974174 411.2109375 1404.18359375 C407.61500201 1401.7563373 404.92759744 1401.36712916 400.69213867 1401.33496094 C399.15990913 1401.32054962 399.15990913 1401.32054962 397.59672546 1401.30584717 C396.49359512 1401.30159729 395.39046478 1401.29734741 394.25390625 1401.29296875 C392.55032707 1401.28441864 392.55032707 1401.28441864 390.81233215 1401.2756958 C388.40736829 1401.26624422 386.00239146 1401.25971119 383.59741211 1401.25585938 C379.92343462 1401.24615974 376.2500179 1401.21513949 372.57617188 1401.18359375 C370.23958666 1401.17706303 367.90299743 1401.17181283 365.56640625 1401.16796875 C364.4693486 1401.15562195 363.37229095 1401.14327515 362.24198914 1401.1305542 C355.31898639 1401.15070722 350.67443256 1401.77288207 345.3984375 1406.62109375 C343.11263098 1410.51543078 342.4731393 1413.99378122 342.7109375 1418.49609375 C344.01813013 1421.86488146 344.01813013 1421.86488146 345.7109375 1424.49609375 C345.7109375 1425.15609375 345.7109375 1425.81609375 345.7109375 1426.49609375 C346.26523437 1426.74617188 346.81953125 1426.99625 347.390625 1427.25390625 C350.11820069 1428.71412354 352.40972947 1430.45185457 354.8359375 1432.37109375 C355.70476562 1433.04914063 356.57359375 1433.7271875 357.46875 1434.42578125 C360.1536843 1436.90490177 361.51311499 1438.91015446 361.96972656 1442.57080078 C361.97311035 1443.65143799 361.97311035 1443.65143799 361.9765625 1444.75390625 C361.97914063 1445.54410156 361.98171875 1446.33429688 361.984375 1447.1484375 C361.97664063 1447.96441406 361.96890625 1448.78039063 361.9609375 1449.62109375 C361.96867187 1450.44480469 361.97640625 1451.26851562 361.984375 1452.1171875 C361.98050781 1453.29861328 361.98050781 1453.29861328 361.9765625 1454.50390625 C361.97430664 1455.2220752 361.97205078 1455.94024414 361.96972656 1456.68017578 C361.7109375 1458.49609375 361.7109375 1458.49609375 359.7109375 1460.49609375 C356.59663752 1460.69649413 353.57091991 1460.76961481 350.45521545 1460.75679016 C349.48373784 1460.76061571 348.51226023 1460.76444126 347.5113439 1460.76838273 C344.23545452 1460.77875371 340.95973907 1460.77471283 337.68383789 1460.77075195 C335.34361101 1460.77509616 333.00338555 1460.78027832 330.66316223 1460.78623962 C324.29136568 1460.79967216 317.91962829 1460.80020358 311.54782033 1460.79767632 C305.56595147 1460.79647473 299.58409101 1460.80267675 293.60222548 1460.80810978 C281.03121772 1460.81899492 268.46023677 1460.81681825 255.8892275 1460.81072494 C244.38093047 1460.80555511 232.87271806 1460.81681119 221.36443777 1460.83582316 C209.55685236 1460.85518053 197.74930703 1460.86346125 185.94170564 1460.8596999 C179.30898797 1460.85778463 172.67633332 1460.8605698 166.04362679 1460.87441444 C159.80809938 1460.88694209 153.57274197 1460.88509684 147.33721733 1460.87200356 C145.04380614 1460.86962715 142.75038318 1460.87241021 140.45698547 1460.88062668 C137.33567093 1460.89100607 134.21493615 1460.88306458 131.09364319 1460.87031555 C130.17770026 1460.87768984 129.26175733 1460.88506412 128.31805855 1460.89266187 C127.48427066 1460.88545533 126.65048276 1460.87824878 125.79142857 1460.87082386 C125.07066436 1460.87087888 124.34990016 1460.87093389 123.60729462 1460.87099057 C121.111484 1460.37758589 120.22812129 1459.51138563 118.7109375 1457.49609375 C118.3125 1454.1328125 118.3125 1454.1328125 118.3359375 1450.18359375 C118.32820312 1448.88808594 118.32046875 1447.59257813 118.3125 1446.2578125 C118.9332988 1440.39674145 120.99127052 1436.64335568 125.5234375 1432.93359375 C126.57337891 1432.05574219 126.57337891 1432.05574219 127.64453125 1431.16015625 C128.9245658 1430.12935338 130.20781204 1429.10250823 131.49609375 1428.08203125 C135.22920954 1425.09186971 137.36394453 1422.94118375 138.046875 1418.12890625 C138.13579241 1412.42040884 137.76655025 1408.87188645 133.7109375 1404.49609375 C128.05454144 1400.65139979 122.36423614 1401.04502257 115.77734375 1401.0625 C114.62604477 1401.05725815 113.47474579 1401.0520163 112.28855896 1401.0466156 C109.85864059 1401.04020448 107.42869115 1401.04152056 104.9987793 1401.05004883 C101.28963728 1401.05855659 97.58203682 1401.0297855 93.87304688 1400.99804688 C91.50781296 1400.99643462 89.14257633 1400.99701285 86.77734375 1401 C85.67298477 1400.98876602 84.56862579 1400.97753204 83.43080139 1400.96595764 C76.97630851 1401.02411073 72.93660566 1401.60098403 67.7109375 1405.49609375 C64.33750233 1410.1753748 63.85154276 1414.90497268 64.7109375 1420.49609375 C67.15868436 1425.94789358 71.61781419 1429.03210685 76.2734375 1432.56640625 C82.33357901 1437.36401828 82.33357901 1437.36401828 83.7109375 1441.49609375 C83.85861073 1444.17693091 83.94185338 1446.81477427 83.9609375 1449.49609375 C83.9815625 1450.22054688 84.0021875 1450.945 84.0234375 1451.69140625 C84.06275462 1457.01887642 84.06275462 1457.01887642 82.45274353 1459.20275307 C80.30147537 1460.80013106 79.17531416 1460.8729905 76.51391602 1460.87704468 C75.65903091 1460.88550415 74.80414581 1460.89396362 73.9233551 1460.90267944 C72.98829636 1460.89660675 72.05323761 1460.89053406 71.08984375 1460.88427734 C70.10245712 1460.8895343 69.1150705 1460.89479126 68.09776306 1460.90020752 C64.82282833 1460.9134442 61.54837749 1460.9046509 58.2734375 1460.89453125 C55.99479072 1460.89655222 53.71614457 1460.89946385 51.4375 1460.90322876 C46.65244411 1460.90765815 41.86755595 1460.90120596 37.08251953 1460.88720703 C30.97072334 1460.8701924 24.85932463 1460.87990343 18.74754333 1460.89792442 C14.0358384 1460.90881189 9.32422618 1460.90529187 4.61251831 1460.89754105 C2.36082919 1460.8955487 0.10913147 1460.89796415 -2.14254761 1460.90497971 C-5.30619256 1460.91266708 -8.46921354 1460.90088491 -11.6328125 1460.88427734 C-12.5516774 1460.89035004 -13.4705423 1460.89642273 -14.41725159 1460.90267944 C-27.29589388 1460.7785159 -39.90354264 1456.42394659 -49.41015625 1447.5703125 C-60.05165772 1435.82262584 -63.44110012 1422.89052124 -63.43432617 1407.48950195 C-63.43768478 1406.3912912 -63.4410434 1405.29308044 -63.44450378 1404.16159058 C-63.45398532 1400.54000715 -63.45595511 1396.91847005 -63.45703125 1393.296875 C-63.4602444 1390.77914918 -63.46360852 1388.26142355 -63.46711731 1385.74369812 C-63.47310058 1380.47227681 -63.47500076 1375.20086725 -63.47436523 1369.92944336 C-63.47376316 1363.83543761 -63.48434521 1357.74152 -63.5001089 1351.64753658 C-63.51474685 1345.77957189 -63.51835378 1339.91164223 -63.51775551 1334.04366112 C-63.51893824 1331.54811428 -63.52337633 1329.05256684 -63.53108788 1326.55703163 C-63.54084208 1323.07611283 -63.53802842 1319.59542415 -63.53198242 1316.11450195 C-63.53760193 1315.0780806 -63.54322144 1314.04165924 -63.54901123 1312.97383118 C-63.5427195 1311.55445251 -63.5427195 1311.55445251 -63.53630066 1310.10639954 C-63.53684543 1309.28365697 -63.53739019 1308.4609144 -63.53795147 1307.61324024 C-63.2890625 1305.49609375 -63.2890625 1305.49609375 -61.2890625 1302.49609375 C-54.80836128 1300.33586001 -46.46412717 1300.6460639 -40.2890625 1303.49609375 C-37.68054707 1305.95185827 -35.50114411 1308.68429224 -33.2890625 1311.49609375 C-28.3875192 1318.10742619 -28.3875192 1318.10742619 -21.2890625 1321.49609375 C-15.43246064 1321.31016988 -11.8535399 1320.42366732 -7.2890625 1316.49609375 C-3.46406764 1310.88534349 -3.85413065 1305.28239554 -3.890625 1298.74609375 C-3.88631973 1297.04888184 -3.88631973 1297.04888184 -3.88192749 1295.31738281 C-3.87989027 1292.93033344 -3.88539613 1290.54326724 -3.89794922 1288.15625 C-3.91400685 1284.50873377 -3.89808799 1280.86232563 -3.87890625 1277.21484375 C-3.88088874 1274.89192464 -3.88473254 1272.56900623 -3.890625 1270.24609375 C-3.88455231 1269.15844727 -3.87847961 1268.07080078 -3.8722229 1266.95019531 C-3.92358493 1261.40331517 -4.0765011 1257.24233832 -7.2890625 1252.49609375 C-10.94071644 1249.11831385 -13.54759518 1247.66354253 -18.5390625 1247.18359375 C-23.49634808 1247.59670088 -27.31080266 1249.4085285 -30.72509766 1253.01147461 C-32.03486499 1254.67968638 -33.26844155 1256.3779756 -34.4765625 1258.12109375 C-39.66062255 1265.48748894 -39.66062255 1265.48748894 -43.2890625 1266.49609375 C-46.14969167 1266.7864824 -48.97794294 1266.82071873 -51.8515625 1266.80859375 C-52.61919922 1266.82470703 -53.38683594 1266.84082031 -54.17773438 1266.85742188 C-59.79309183 1266.86231757 -59.79309183 1266.86231757 -62.00741065 1265.2272687 C-63.57081591 1263.11551891 -63.66481462 1262.0422298 -63.66658592 1259.43401337 C-63.67440916 1258.60432557 -63.68223241 1257.77463777 -63.69029272 1256.91980791 C-63.68360055 1256.00843805 -63.67690839 1255.09706819 -63.67001343 1254.15808105 C-63.6746934 1253.18983257 -63.67937337 1252.22158408 -63.68419516 1251.22399473 C-63.69620417 1247.96494754 -63.68666479 1244.70631627 -63.67724609 1241.44726562 C-63.68130917 1239.11674249 -63.68664955 1236.78622128 -63.69317627 1234.45570374 C-63.70688707 1228.1149253 -63.70153566 1221.77429282 -63.69203901 1215.43351173 C-63.6852292 1209.47938283 -63.69041831 1203.52527221 -63.6948206 1197.57114285 C-63.70337993 1185.05972517 -63.69353187 1172.54837338 -63.6774195 1160.0369665 C-63.66401581 1149.29625847 -63.66634375 1138.55564769 -63.68017578 1127.81494141 C-63.69622203 1115.34899751 -63.70255591 1102.88311139 -63.69333899 1090.4171586 C-63.68865356 1083.81575592 -63.68806148 1077.21442027 -63.69794846 1070.61302185 C-63.70659227 1064.40783939 -63.70064352 1058.20284123 -63.68326569 1051.99767876 C-63.679287 1049.71555831 -63.68045834 1047.43342244 -63.68705368 1045.15130806 C-63.69520467 1042.04536228 -63.68502565 1038.94001377 -63.67001343 1035.83410645 C-63.67670559 1034.92273658 -63.68339776 1034.01136672 -63.69029272 1033.07237959 C-63.68246947 1032.24269179 -63.67464623 1031.41300399 -63.66658592 1030.55817413 C-63.66609887 1029.84098977 -63.66561181 1029.1238054 -63.66510999 1028.38488817 C-63.16840788 1025.89007514 -62.30799609 1025.00988522 -60.2890625 1023.49609375 C-53.66875701 1022.68678328 -44.50281232 1021.74978483 -38.86328125 1025.8203125 C-35.71188425 1029.17502544 -33.09522767 1032.92896808 -30.5 1036.71875 C-27.78655295 1040.12733807 -25.39615969 1042.08286444 -21.078125 1042.9296875 C-15.30882589 1042.9401014 -11.92275343 1042.01769886 -7.2890625 1038.49609375 C-3.38805423 1032.89031864 -3.85470475 1027.09020613 -3.890625 1020.52734375 C-3.88631973 1018.79683777 -3.88631973 1018.79683777 -3.88192749 1017.03137207 C-3.87989006 1014.59724434 -3.88539735 1012.16310012 -3.89794922 1009.72900391 C-3.9140065 1006.0090667 -3.89808862 1002.29021602 -3.87890625 998.5703125 C-3.88088874 996.20182053 -3.88473253 993.83332922 -3.890625 991.46484375 C-3.88455231 990.35532349 -3.87847961 989.24580322 -3.8722229 988.10266113 C-3.92291117 982.5212297 -4.01909881 978.25416721 -7.2890625 973.49609375 C-11.44375096 970.00237846 -14.85117958 968.5914952 -20.2890625 968.49609375 C-26.95474023 970.28154314 -30.09727736 974.21037854 -34.2890625 979.49609375 C-35.32226353 980.79454199 -36.36344002 982.08670105 -37.4140625 983.37109375 C-38.06761719 984.20253906 -38.06761719 984.20253906 -38.734375 985.05078125 C-42.66574689 988.70557422 -47.19464041 988.8159395 -52.3515625 988.87109375 C-53.55941406 988.89945313 -54.76726563 988.9278125 -56.01171875 988.95703125 C-59.2890625 988.49609375 -59.2890625 988.49609375 -61.46215057 987.05563354 C-64.21371384 983.20063891 -63.84269337 979.71153174 -63.79699707 975.08251953 C-63.80323703 974.11820574 -63.809477 973.15389194 -63.81590605 972.16035652 C-63.83189489 968.92045968 -63.81920848 965.68130903 -63.80664062 962.44140625 C-63.81205911 960.12220825 -63.81918022 957.80301369 -63.82788086 955.48382568 C-63.84614953 949.17812445 -63.83903191 942.87268438 -63.82636452 936.56697845 C-63.81625527 929.97579735 -63.82562442 923.38463899 -63.83190918 916.79345703 C-63.84045887 905.01402022 -63.82720805 893.23469351 -63.80687183 881.45527577 C-63.78900053 870.77285923 -63.79210455 860.09061654 -63.81054688 849.40820312 C-63.83194831 837.00595171 -63.83992351 824.60381118 -63.82809782 812.20154381 C-63.82185352 805.63531697 -63.82105304 799.06920992 -63.83424377 792.50299072 C-63.84577671 786.33056942 -63.837823 780.15847726 -63.81466675 773.98609161 C-63.80936602 771.71729327 -63.81091659 769.44846734 -63.81971741 767.17967987 C-63.83060232 764.08929866 -63.81699413 760.9999809 -63.79699707 757.90966797 C-63.80591996 757.00578402 -63.81484284 756.10190006 -63.82403612 755.17062569 C-63.74792554 749.1321283 -63.74792554 749.1321283 -61.44408417 745.93875122 C-58.5125654 743.97627562 -56.48224335 743.99680149 -52.9765625 744.05859375 C-51.34267578 744.06052734 -51.34267578 744.06052734 -49.67578125 744.0625 C-41.74263692 745.07816208 -37.89355408 748.46300265 -33.2265625 754.49609375 C-29.67177901 759.05518533 -26.89871953 762.43338404 -21.2890625 764.49609375 C-17.05810095 764.92385641 -13.72237599 763.71683836 -9.9765625 761.80859375 C-6.31248686 758.65578448 -4.55287709 755.84944526 -4.00393677 750.95263672 C-3.87528224 747.80708799 -3.84713908 744.67553175 -3.85546875 741.52734375 C-3.8502269 740.3736731 -3.84498505 739.22000244 -3.83958435 738.03137207 C-3.8331737 735.59725752 -3.83448871 733.16311195 -3.84301758 730.72900391 C-3.85153323 727.0088787 -3.82274091 723.29028639 -3.79101562 719.5703125 C-3.7894036 717.20182338 -3.78998116 714.83333154 -3.79296875 712.46484375 C-3.78173477 711.35532349 -3.77050079 710.24580322 -3.75892639 709.10266113 C-3.81462977 702.91961618 -4.1268829 699.188657 -8.2890625 694.49609375 C-11.56136254 691.62043614 -14.162598 690.60440764 -18.5390625 690.18359375 C-23.05387775 690.55982835 -25.93498423 691.52316074 -29.2890625 694.49609375 C-31.69365691 697.50183676 -33.90308108 700.5425577 -36.078125 703.71875 C-38.75665432 707.08347499 -40.85243789 709.15374033 -45.22998047 709.76879883 C-47.46725864 709.89899072 -49.67347926 709.90550544 -51.9140625 709.87109375 C-52.6771875 709.88269531 -53.4403125 709.89429688 -54.2265625 709.90625 C-59.77713783 709.87703645 -59.77713783 709.87703645 -62.00521338 708.21904033 C-64.32339625 705.10800089 -63.69819386 701.12915463 -63.67001343 697.39259338 C-63.6746934 696.44955178 -63.67937337 695.50651017 -63.68419516 694.53489155 C-63.69620289 691.36109182 -63.68666528 688.18771928 -63.67724609 685.01391602 C-63.68130925 682.74412788 -63.68664968 680.47434172 -63.69317627 678.20455933 C-63.70688684 672.02899645 -63.70153555 665.85358345 -63.69203901 659.67801785 C-63.68446085 653.22430079 -63.69148297 646.77059683 -63.69619751 640.31687927 C-63.70201112 628.7814047 -63.69266809 617.24600695 -63.6774195 605.7105444 C-63.664019 595.24929714 -63.66634109 584.78814975 -63.68017578 574.3269043 C-63.6962274 562.18359738 -63.70220771 550.04036888 -63.69333899 537.89704937 C-63.68865561 531.46720063 -63.68805582 525.03742072 -63.69794846 518.60757637 C-63.70659888 512.56244034 -63.70063131 506.51749334 -63.68326569 500.47237778 C-63.67929038 498.25034207 -63.68045263 496.02829052 -63.68705368 493.80626106 C-63.69521803 490.77948336 -63.68500922 487.75331627 -63.67001343 484.72657776 C-63.67670559 483.84146643 -63.68339776 482.9563551 -63.69029272 482.04442221 C-63.65618931 478.51004248 -63.61330747 476.12451362 -61.97545815 472.95019436 C-59.20354243 470.56010023 -56.54069306 471.00571347 -52.9765625 471.05859375 C-51.68105469 471.05988281 -50.38554688 471.06117188 -49.05078125 471.0625 C-43.24644964 471.73153511 -39.46642032 473.73952779 -35.7890625 478.24609375 C-35.19996094 478.94476563 -34.61085938 479.6434375 -34.00390625 480.36328125 C-32.90948501 481.72445209 -31.83655241 483.10337883 -30.79296875 484.50390625 C-27.79635792 488.3856948 -25.3724846 490.6152801 -20.44140625 491.4765625 C-16.3628909 491.51357262 -12.86910528 490.40591972 -9.2890625 488.49609375 C-5.20625134 484.41328259 -4.17298568 481.05659032 -4.11206055 475.40136719 C-4.09922531 474.36308777 -4.08639008 473.32480835 -4.07316589 472.25506592 C-4.06577896 471.13319885 -4.05839203 470.01133179 -4.05078125 468.85546875 C-4.0427095 467.69992493 -4.03463776 466.5443811 -4.02632141 465.3538208 C-4.01248288 462.90598042 -4.0017597 460.45812077 -3.99389648 458.01025391 C-3.97669419 454.27469105 -3.93280545 450.54001554 -3.88867188 446.8046875 C-3.87854391 444.42578775 -3.87002813 442.04688049 -3.86328125 439.66796875 C-3.84577316 438.55419861 -3.82826508 437.44042847 -3.81022644 436.29290771 C-3.82830495 429.79895739 -4.35730558 425.74799936 -8.2890625 420.49609375 C-12.96834355 417.12265858 -17.69794143 416.63669901 -23.2890625 417.49609375 C-28.74086233 419.94384061 -31.8250756 424.40297044 -35.359375 429.05859375 C-40.15698703 435.11873526 -40.15698703 435.11873526 -44.2890625 436.49609375 C-46.96989966 436.64376698 -49.60774302 436.72700963 -52.2890625 436.74609375 C-53.37574219 436.77703125 -53.37574219 436.77703125 -54.484375 436.80859375 C-59.8167345 436.84794696 -59.8167345 436.84794696 -61.99593604 435.22458553 C-63.56005754 433.13386104 -63.66478931 432.10155836 -63.66658592 429.51210022 C-63.67440916 428.6998294 -63.68223241 427.88755857 -63.69029272 427.05067348 C-63.68360055 426.15875836 -63.67690839 425.26684324 -63.67001343 424.34790039 C-63.67703339 422.9261543 -63.67703339 422.9261543 -63.68419516 421.47568607 C-63.69620306 418.28573355 -63.68666524 415.09620605 -63.67724609 411.90625 C-63.68130922 409.62498727 -63.68664963 407.3437265 -63.69317627 405.06246948 C-63.70688648 398.85598325 -63.70153591 392.64964613 -63.69203901 386.4431572 C-63.68446159 379.95827574 -63.69148268 373.47340733 -63.69619751 366.98852539 C-63.70201093 355.39849369 -63.69266813 343.80853026 -63.6774195 332.21850932 C-63.66401582 321.70520947 -63.66634376 311.19200899 -63.68017578 300.67871094 C-63.69622234 288.47645175 -63.70221065 276.27426334 -63.69333899 264.07199383 C-63.6886537 257.61031902 -63.68806109 251.14871269 -63.69794846 244.68704224 C-63.70659264 238.61318244 -63.70064285 232.53951092 -63.68326569 226.46567154 C-63.6792872 224.23192788 -63.68045801 221.99816847 -63.68705368 219.764431 C-63.69520547 216.7241666 -63.68502472 213.68451224 -63.67001343 210.64428711 C-63.67670559 209.75237199 -63.68339776 208.86045687 -63.69029272 207.94151402 C-63.68246947 207.12924319 -63.67464623 206.31697237 -63.66658592 205.48008728 C-63.66609887 204.77809173 -63.66561181 204.07609617 -63.66510999 203.35282803 C-63.16412187 200.87919948 -62.29259568 199.99761799 -60.2890625 198.49609375 C-57.56865271 198.19643738 -55.12822497 198.0770803 -52.4140625 198.12109375 C-51.70636719 198.10949219 -50.99867187 198.09789062 -50.26953125 198.0859375 C-44.39022546 198.11878278 -41.29949044 199.49689726 -37.19140625 203.58203125 C-36.54300781 204.33742187 -35.89460938 205.0928125 -35.2265625 205.87109375 C-34.53949219 206.66386719 -33.85242188 207.45664063 -33.14453125 208.2734375 C-31.7359278 209.96079616 -30.37563469 211.6886245 -29.0390625 213.43359375 C-26.75074985 216.13053366 -24.67828022 217.27525692 -21.17578125 217.83203125 C-15.33866362 217.93571007 -11.97628686 217.05838426 -7.2890625 213.49609375 C-3.40309806 207.89946327 -3.83808557 202.11387312 -3.85546875 195.5625 C-3.8502269 194.41120102 -3.84498505 193.25990204 -3.83958435 192.07371521 C-3.83317323 189.64379684 -3.83448931 187.2138474 -3.84301758 184.78393555 C-3.85152534 181.07479353 -3.82275425 177.36719307 -3.79101562 173.65820312 C-3.78940337 171.29296921 -3.7899816 168.92773258 -3.79296875 166.5625 C-3.78173477 165.45814102 -3.77050079 164.35378204 -3.75892639 163.21595764 C-3.81712923 156.75594238 -4.41288817 152.73717485 -8.2890625 147.49609375 C-11.75906142 144.75662092 -14.87419321 143.66922588 -19.2890625 143.49609375 C-26.44606651 144.73761485 -30.00180288 148.97523585 -34.2890625 154.49609375 C-35.32071455 155.79577305 -36.36183264 157.08801755 -37.4140625 158.37109375 C-37.84976563 158.92539063 -38.28546875 159.4796875 -38.734375 160.05078125 C-42.83539292 163.86328535 -47.54994451 163.79272358 -52.9140625 163.80859375 C-54.22632813 163.82535156 -55.53859375 163.84210938 -56.890625 163.859375 C-60.2890625 163.49609375 -60.2890625 163.49609375 -61.97765541 162.27087307 C-63.68434125 159.96114731 -63.66621781 158.5948516 -63.67001343 155.73634338 C-63.6784729 154.75669113 -63.68693237 153.77703888 -63.69564819 152.7677002 C-63.6895755 151.69395142 -63.68350281 150.62020264 -63.67724609 149.51391602 C-63.68250305 148.38183212 -63.68776001 147.24974823 -63.69317627 146.08335876 C-63.70641944 142.32626694 -63.69761731 138.56959645 -63.6875 134.8125 C-63.68952075 132.19994526 -63.6924322 129.58739107 -63.69619751 126.97483826 C-63.70165997 121.48781773 -63.69445798 116.00091817 -63.68017578 110.51391602 C-63.66392136 104.1968505 -63.66908282 97.88007657 -63.685655 91.56301838 C-63.701 85.46706746 -63.6992577 79.3712442 -63.6905098 73.27528191 C-63.68851653 70.69228003 -63.69093618 68.10927067 -63.69794846 65.52627754 C-63.70562983 61.89826402 -63.69386153 58.27079558 -63.67724609 54.64282227 C-63.68331879 53.58729156 -63.68939148 52.53176086 -63.69564819 51.44424438 C-63.56949447 36.45650589 -59.10316161 23.67021955 -48.734375 12.75390625 C-34.55591788 -0.33738483 -18.14991487 -0.09742399 0 0 Z " fill="#153580" transform="translate(63.2890625,-0.49609375)"/>
</svg>
