<?xml version="1.0" encoding="UTF-8"?>
<svg version="1.1" xmlns="http://www.w3.org/2000/svg" width="317" height="316">
<path d="M0 0 C65.01 0 130.02 0 197 0 C197.33 5.61 197.66 11.22 198 17 C201.21200144 30.20489479 206.89104666 42.59931468 218.79296875 50.13525391 C231.17126197 57.309599 241.52575696 58.79381308 256 60 C256 124.68 256 189.36 256 256 C249.73 256.66 243.46 257.32 237 258 C224.13830143 261.71265526 211.751524 268.4330543 204.953125 280.4453125 C198.58988116 292.51513519 197.7954347 301.68217531 197 316 C131.99 316 66.98 316 0 316 C-0.33 310.39 -0.66 304.78 -1 299 C-3.94309211 286.54845644 -9.52060841 274.85554392 -20 267 C-33.31405182 258.79108614 -44.12143317 257.13418334 -60 256 C-60 191.32 -60 126.64 -60 60 C-53.4 59.34 -46.8 58.68 -40 58 C-25.91699347 53.97628385 -14.95214418 46.7441317 -7.1875 34.1875 C-0.91519296 22.7287523 -0.80155844 13.62649349 0 0 Z " fill="#153580" transform="translate(60,0)"/>
</svg>
